<svg width="31" height="31" viewBox="0 0 31 31" fill="none" xmlns="http://www.w3.org/2000/svg">
<path fill-rule="evenodd" clip-rule="evenodd" d="M15.4875 0C18.3721 0.0329167 20.978 0.741861 23.3053 2.12683C25.6048 3.48415 27.5177 5.40872 28.861 7.71649C30.2375 10.0578 30.9422 12.6795 30.975 15.5817C30.8932 19.5525 29.6408 22.944 27.2177 25.7561C24.7946 28.5682 21.6911 30.308 18.4785 30.9749V19.8419H21.5158L22.2027 15.4669H17.6035V12.6014C17.578 12.0074 17.7658 11.4238 18.1331 10.9562C18.5009 10.4874 19.1486 10.2409 20.0762 10.2169H22.8535V6.38454C22.8136 6.37172 22.4355 6.32102 21.7191 6.23244C20.9066 6.13738 20.0896 6.08661 19.2716 6.08034C17.4202 6.08889 15.9561 6.61112 14.879 7.64706C13.802 8.6827 13.2518 10.181 13.2285 12.1421V15.4669H9.72851V19.8419H13.2285V30.9749C9.28383 30.308 6.18039 28.5682 3.75726 25.7561C1.33414 22.944 0.0817625 19.5525 0 15.5817C0.0327125 12.6794 0.737371 10.0577 2.11398 7.71649C3.45727 5.40872 5.37016 3.48416 7.66971 2.12683C9.99693 0.742127 12.6029 0.0331833 15.4875 0Z" fill="white"/>
</svg>
