<svg width="41" height="46" viewBox="0 0 41 46" fill="none" xmlns="http://www.w3.org/2000/svg">
<path d="M14.443 33.0515L20.3596 38.8842L26.2762 33.0515L20.3596 27.2189L14.443 33.0515ZM20.3596 4.74504V4.75381C18.6662 4.75381 16.9728 5.39116 15.6827 6.66293L15.6768 6.65709C14.3896 7.92886 13.7431 9.60117 13.7431 11.2735C13.7431 12.9487 14.3867 14.6181 15.6708 15.884H15.6797L20.3596 20.4946L25.0366 15.884H25.0455C26.3385 14.6093 26.985 12.9399 26.985 11.2735H26.9761C26.9761 9.6041 26.3296 7.93471 25.0395 6.66293C23.7405 5.38531 22.0471 4.74504 20.3596 4.74504ZM29.6868 36.4137L22.0649 43.9274L20.3596 45.6085L18.6543 43.9274L11.0325 36.4137L3.41057 43.9274L0 40.5652L16.952 23.8568L12.2751 19.2462L12.281 19.2404C10.0419 17.0359 8.92383 14.1503 8.92383 11.2735C8.92383 8.39372 10.0419 5.51103 12.2751 3.30954V3.30369C14.5083 1.10221 17.4354 0 20.3596 0V0.00877086C23.2898 0.00877086 26.2199 1.10805 28.4471 3.30369C30.6803 5.50518 31.7954 8.39079 31.7954 11.2764H31.7865C31.7865 14.1591 30.6714 17.0418 28.4412 19.2433L28.4471 19.2491L23.7702 23.8568L40.7193 40.5652L37.3087 43.9274L29.6868 36.4137Z" fill="white"/>
</svg>
