<svg width="32" height="32" viewBox="0 0 32 32" fill="none" xmlns="http://www.w3.org/2000/svg">
<path d="M32.0007 16.4814C32.2407 7.32143 24.8807 -0.118568 15.7607 0.0014315C7.00067 0.121431 -0.0793287 7.36143 0.00067135 16.1214C0.0406714 22.4014 3.72067 27.8014 9.00067 30.4014C9.32067 30.5614 9.68067 30.3214 9.64067 29.9614C9.60067 28.9214 9.64067 27.8414 9.84067 26.9614C10.0407 26.0814 10.8407 22.7214 11.3607 20.5214C11.6007 19.4414 11.6407 18.3214 11.4407 17.2414C11.3607 16.8814 11.3207 16.4814 11.3207 16.0014C11.3207 13.6414 12.6807 11.8814 14.4007 11.8814C15.8407 11.8814 16.5607 12.9614 16.5607 14.2814C16.5607 15.7214 15.6407 17.9214 15.1607 19.9614C14.7607 21.6414 16.0007 23.0414 17.6807 23.0414C20.7207 23.0414 23.0407 19.8414 23.0407 15.2414C23.0407 11.1614 20.1207 8.32143 15.9207 8.32143C11.0807 8.32143 8.24067 11.9614 8.24067 15.7214C8.24067 17.2014 8.80067 18.7614 9.52067 19.6014C9.64067 19.7614 9.68067 19.9214 9.64067 20.0814C9.52067 20.6014 9.24067 21.7614 9.16067 22.0014C9.08067 22.3214 8.92067 22.3614 8.60067 22.2414C6.48067 21.2014 5.12067 18.0814 5.12067 15.6014C5.12067 10.2414 9.00067 5.32143 16.3607 5.32143C22.2407 5.32143 26.8407 9.52143 26.8407 15.1614C26.8407 21.0414 23.1607 25.7214 18.0007 25.7214C16.6407 25.7214 15.3607 25.1614 14.6007 24.4014C14.3607 24.1614 13.9607 24.2814 13.8807 24.6014C13.6007 25.6014 13.2007 27.2814 13.0407 27.8014C12.8007 28.7614 12.2807 29.8814 11.7207 30.8814C11.5607 31.1214 11.7207 31.4814 12.0007 31.5214C13.3207 31.8414 14.6807 32.0414 16.0807 32.0014C24.5607 31.9214 31.7607 24.8814 32.0007 16.4814Z" fill="white"/>
</svg>
